<svg xmlns="http://www.w3.org/2000/svg" viewBox="0 0 900 560" role="img" aria-labelledby="t"><title id="t">Robot hand illustration</title><defs><linearGradient id="bg" x1="0" y1="0" x2="1" y2="1"><stop stop-color="#f5fbfd"/><stop offset="1" stop-color="#e4f1f6"/></linearGradient><linearGradient id="m" x1="0" y1="0" x2="1" y2="1"><stop stop-color="#ffffff"/><stop offset="1" stop-color="#b8c8d0"/></linearGradient></defs><rect width="900" height="560" rx="36" fill="url(#bg)"/><ellipse cx="480" cy="480" rx="220" ry="24" fill="#0c3448" opacity=".12"/><rect x="382" y="300" width="190" height="150" rx="60" fill="url(#m)" stroke="#0c3448" stroke-width="9"/><g fill="url(#m)" stroke="#0c3448" stroke-width="9"><rect x="370" y="92" width="42" height="235" rx="21" transform="rotate(-8 370 92)"/><rect x="430" y="65" width="42" height="250" rx="21" transform="rotate(-3 430 65)"/><rect x="490" y="75" width="42" height="240" rx="21" transform="rotate(3 490 75)"/><rect x="550" y="110" width="42" height="215" rx="21" transform="rotate(8 550 110)"/><rect x="310" y="285" width="42" height="170" rx="21" transform="rotate(-48 310 285)"/></g><circle cx="475" cy="373" r="46" fill="#0c3448"/><circle cx="475" cy="373" r="17" fill="#4ad7ff"/><text x="44" y="66" font-family="Arial,sans-serif" font-size="34" font-weight="700" fill="#0c3448">Robot Hand / Gripper</text><text x="44" y="104" font-family="Arial,sans-serif" font-size="18" fill="#5f7480">Dexterous manipulation</text></svg>