<svg xmlns="http://www.w3.org/2000/svg" viewBox="0 0 900 560" role="img" aria-labelledby="t"><title id="t">Robot arm illustration</title><defs><linearGradient id="bg" x1="0" y1="0" x2="1" y2="1"><stop stop-color="#f5fbfd"/><stop offset="1" stop-color="#dceef5"/></linearGradient><linearGradient id="m" x1="0" y1="0" x2="1" y2="1"><stop stop-color="#ffffff"/><stop offset="1" stop-color="#b7c8d1"/></linearGradient></defs><rect width="900" height="560" rx="36" fill="url(#bg)"/><ellipse cx="460" cy="480" rx="235" ry="28" fill="#0c3448" opacity=".12"/><circle cx="290" cy="430" r="72" fill="#20343f"/><circle cx="290" cy="430" r="30" fill="#009ad2"/><g fill="url(#m)" stroke="#0c3448" stroke-width="10"><rect x="275" y="270" width="62" height="180" rx="31" transform="rotate(-18 275 270)"/><rect x="355" y="180" width="62" height="190" rx="31" transform="rotate(32 355 180)"/><rect x="500" y="150" width="62" height="185" rx="31" transform="rotate(68 500 150)"/></g><circle cx="365" cy="285" r="34" fill="#20343f"/><circle cx="512" cy="225" r="34" fill="#20343f"/><circle cx="650" cy="205" r="28" fill="#009ad2"/><rect x="640" y="215" width="90" height="24" rx="12" fill="#20343f"/><text x="44" y="66" font-family="Arial,sans-serif" font-size="34" font-weight="700" fill="#0c3448">Research Robot Arm</text><text x="44" y="104" font-family="Arial,sans-serif" font-size="18" fill="#5f7480">Force control / precision manipulation</text></svg>